<svg width="23" height="18" viewBox="0 0 23 18" fill="none" xmlns="http://www.w3.org/2000/svg">
<path fill-rule="evenodd" clip-rule="evenodd" d="M4.45033 0.547256C4.33035 0.427568 4.1678 0.360352 3.99833 0.360352C3.82886 0.360352 3.66631 0.427568 3.54633 0.547256L0.346332 3.74726C0.231266 3.86815 0.167979 4.02922 0.169967 4.19611C0.171955 4.363 0.23906 4.52251 0.356974 4.64064C0.474887 4.75876 0.63428 4.82614 0.801167 4.82843C0.968055 4.83071 1.12923 4.76771 1.25033 4.65286L3.35913 2.54566V15.4545L1.25033 13.3473C1.12923 13.2324 0.968055 13.1694 0.801167 13.1717C0.63428 13.174 0.474887 13.2414 0.356974 13.3595C0.23906 13.4776 0.171955 13.6371 0.169967 13.804C0.167979 13.9709 0.231266 14.132 0.346332 14.2529L3.54633 17.4529C3.66631 17.5725 3.82886 17.6398 3.99833 17.6398C4.1678 17.6398 4.33035 17.5725 4.45033 17.4529L7.65033 14.2529C7.7654 14.132 7.82868 13.9709 7.8267 13.804C7.82471 13.6371 7.7576 13.4776 7.63969 13.3595C7.52178 13.2414 7.36238 13.174 7.1955 13.1717C7.02861 13.1694 6.86743 13.2324 6.74633 13.3473L4.63753 15.4545V2.54566L6.74633 4.65286C6.86743 4.76771 7.02861 4.83071 7.1955 4.82843C7.36238 4.82614 7.52178 4.75876 7.63969 4.64064C7.7576 4.52251 7.82471 4.363 7.8267 4.19611C7.82868 4.02922 7.7654 3.86815 7.65033 3.74726L4.45033 0.547256ZM16.7991 1.40006C16.9635 1.40013 17.1239 1.45085 17.2585 1.54533C17.393 1.6398 17.4952 1.77344 17.5511 1.92806L22.3511 15.2401C22.4164 15.4378 22.402 15.6532 22.3109 15.8405C22.2199 16.0278 22.0594 16.1722 21.8635 16.2431C21.6677 16.3139 21.452 16.3056 21.2622 16.2199C21.0724 16.1342 20.9235 15.9778 20.8471 15.7841L19.2759 11.4257H14.3223L12.7511 15.7825C12.6748 15.9762 12.5259 16.1326 12.3361 16.2183C12.1463 16.304 11.9306 16.3123 11.7347 16.2415C11.5389 16.1706 11.3784 16.0262 11.2873 15.8389C11.1963 15.6516 11.1819 15.4362 11.2471 15.2385L16.0471 1.92806C16.103 1.77344 16.2052 1.6398 16.3398 1.54533C16.4743 1.45085 16.6347 1.40013 16.7991 1.40006ZM16.7991 4.55846L18.7847 10.0657H14.8151L16.7991 4.55846Z" fill="black"/>
</svg>
