<svg width="64" height="64" viewBox="0 0 64 64" fill="none" xmlns="http://www.w3.org/2000/svg">
<path d="M36.831 30.749C39.91 29.043 42 25.762 42 22C42 16.486 37.514 12 32 12C26.486 12 22 16.486 22 22C22 25.762 24.09 29.043 27.169 30.749C20.701 32.803 16 38.861 16 46V48C16 50.206 17.794 52 20 52H44C46.206 52 48 50.206 48 48V46C48 38.861 43.299 32.803 36.831 30.749ZM24 22C24 17.589 27.589 14 32 14C36.411 14 40 17.589 40 22C40 26.411 36.411 30 32 30C27.589 30 24 26.411 24 22ZM46 48C46 49.103 45.103 50 44 50H20C18.897 50 18 49.103 18 48V46C18 38.28 24.28 32 32 32C39.72 32 46 38.28 46 46V48Z" fill="black"/>
<path d="M56.975 33.755C58.8 32.49 60 30.383 60 28C60 24.141 56.859 21 53 21C49.141 21 46 24.141 46 28C46 30.383 47.2 32.489 49.024 33.754C48.088 34.12 47.195 34.611 46.372 35.235C45.932 35.568 45.845 36.196 46.179 36.635C46.511 37.075 47.138 37.161 47.579 36.828C49.159 35.633 51.033 35 53 35C57.963 35 62 39.037 62 44V48C62 49.103 61.103 50 60 50H49.188C48.635 50 48.188 50.447 48.188 51C48.188 51.553 48.635 52 49.188 52H60C62.206 52 64 50.206 64 48V44C64 39.337 61.079 35.353 56.975 33.755ZM48 28C48 25.243 50.243 23 53 23C55.757 23 58 25.243 58 28C58 30.757 55.757 33 53 33C50.243 33 48 30.757 48 28Z" fill="black"/>
<path d="M17.628 35.235C16.804 34.611 15.912 34.12 14.976 33.754C16.8 32.49 18 30.383 18 28C18 24.141 14.859 21 11 21C7.141 21 4 24.141 4 28C4 30.383 5.2 32.49 7.025 33.755C2.921 35.353 0 39.337 0 44V48C0 50.206 1.794 52 4 52H14.812C15.365 52 15.812 51.553 15.812 51C15.812 50.447 15.365 50 14.812 50H4C2.897 50 2 49.103 2 48V44C2 39.037 6.037 35 11 35C12.967 35 14.841 35.633 16.421 36.829C16.861 37.162 17.488 37.076 17.821 36.636C18.155 36.196 18.068 35.568 17.628 35.235ZM6 28C6 25.243 8.243 23 11 23C13.757 23 16 25.243 16 28C16 30.757 13.757 33 11 33C8.243 33 6 30.757 6 28Z" fill="black"/>
</svg>
