<svg width="157" height="146" viewBox="0 0 157 146" fill="none" xmlns="http://www.w3.org/2000/svg">
<path d="M138.35 19.4775C135.428 13.8042 130.819 9.02769 125.068 5.71322C119.316 2.39875 112.664 0.685124 105.897 0.775164C99.1304 0.865204 92.5332 2.75514 86.8862 6.22128C81.2393 9.68743 76.779 14.5847 74.0333 20.3333H42.5833C36.9475 20.3333 31.5425 22.4141 27.5573 26.118C23.5722 29.8218 21.3333 34.8453 21.3333 40.0833V66.4167C21.3333 68.1627 22.0796 69.8372 23.408 71.0718C24.7364 72.3064 26.538 73 28.4167 73C30.2953 73 32.097 72.3064 33.4253 71.0718C34.7537 69.8372 35.5 68.1627 35.5 66.4167V40.0833C35.5 38.3373 36.2463 36.6628 37.5747 35.4282C38.903 34.1936 40.7047 33.5 42.5833 33.5H62.275C58.749 37.1053 56.7812 41.7946 56.75 46.6667C56.75 51.9047 58.9888 56.9282 62.974 60.632C66.9591 64.3359 72.3641 66.4167 78 66.4167H129.921C136.089 66.458 142.07 64.4541 146.791 60.765C151.512 57.0759 154.664 51.9432 155.679 46.2889C156.694 40.6345 155.507 34.8289 152.331 29.9148C149.155 25.0007 144.198 21.3001 138.35 19.4775ZM129.921 53.25H78C76.1214 53.25 74.3197 52.5564 72.9913 51.3218C71.6629 50.0872 70.9167 48.4127 70.9167 46.6667C70.9167 44.9206 71.6629 43.2462 72.9913 42.0115C74.3197 40.7769 76.1214 40.0833 78 40.0833C79.8786 40.0833 81.6803 39.3897 83.0087 38.1551C84.337 36.9205 85.0833 35.246 85.0833 33.5C85.0262 28.8018 86.773 24.2386 90.0102 20.6298C93.2473 17.021 97.7627 14.603 102.745 13.81C107.728 13.017 112.852 13.901 117.197 16.3032C121.541 18.7054 124.822 22.4685 126.45 26.9167C126.855 28.0479 127.583 29.0558 128.556 29.8326C129.529 30.6095 130.711 31.1261 131.975 31.3275C134.745 31.754 137.257 33.0931 139.052 35.0998C140.847 37.1065 141.805 39.6467 141.75 42.2558C141.75 43.6996 141.444 45.1292 140.85 46.4631C140.255 47.797 139.384 49.009 138.285 50.0299C137.187 51.0508 135.883 51.8606 134.448 52.4131C133.012 52.9656 131.474 53.25 129.921 53.25ZM127.583 79.5833C125.705 79.5833 123.903 80.2769 122.575 81.5115C121.246 82.7462 120.5 84.4206 120.5 86.1667V105.917C120.5 107.663 119.754 109.337 118.425 110.572C117.097 111.806 115.295 112.5 113.417 112.5H97.4083C96.0394 109.242 93.9236 106.3 91.2081 103.879C88.4926 101.457 85.2424 99.614 81.6833 98.4775C78.4735 92.1464 73.1759 86.931 66.5599 83.5885C59.9439 80.2459 52.3538 78.9503 44.8916 79.8897C37.4294 80.8291 30.4837 83.9547 25.0627 88.8125C19.6418 93.6703 16.0279 100.008 14.7458 106.904C9.9489 108.369 5.87013 111.375 3.24038 115.381C0.610629 119.387 -0.398248 124.133 0.39452 128.768C1.18729 133.402 3.72989 137.623 7.56675 140.674C11.4036 143.725 16.284 145.406 21.3333 145.417H73.2542C79.319 145.417 85.1918 143.44 89.8509 139.832C94.5101 136.223 97.6605 131.211 98.7542 125.667H113.417C119.053 125.667 124.458 123.586 128.443 119.882C132.428 116.178 134.667 111.155 134.667 105.917V86.1667C134.667 84.4206 133.92 82.7462 132.592 81.5115C131.264 80.2769 129.462 79.5833 127.583 79.5833ZM73.2542 132.25H21.3333C19.4547 132.25 17.653 131.556 16.3247 130.322C14.9963 129.087 14.25 127.413 14.25 125.667C14.25 123.921 14.9963 122.246 16.3247 121.012C17.653 119.777 19.4547 119.083 21.3333 119.083C23.2119 119.083 25.0136 118.39 26.342 117.155C27.6704 115.92 28.4167 114.246 28.4167 112.5C28.3595 107.802 30.1063 103.239 33.3435 99.6298C36.5806 96.021 41.096 93.603 46.0788 92.81C51.0616 92.017 56.1853 92.901 60.5299 95.3032C64.8745 97.7054 68.1554 101.468 69.7833 105.917C70.1882 107.048 70.916 108.056 71.8891 108.833C72.8622 109.609 74.044 110.126 75.3083 110.327C78.0783 110.754 80.5906 112.093 82.3855 114.1C84.1804 116.107 85.1381 118.647 85.0833 121.256C85.0833 122.7 84.7774 124.129 84.1829 125.463C83.5884 126.797 82.7171 128.009 81.6186 129.03C80.5202 130.051 79.2162 130.861 77.781 131.413C76.3458 131.966 74.8076 132.25 73.2542 132.25Z" fill="white"/>
</svg>
