<svg width="20" height="19" viewBox="0 0 20 19" fill="none" xmlns="http://www.w3.org/2000/svg">
<path d="M15 1V14.5C15 14.9596 14.9095 15.4148 14.7336 15.8394C14.5577 16.264 14.2999 16.6499 13.9749 16.9749C13.6499 17.2999 13.264 17.5577 12.8394 17.7336C12.4148 17.9095 11.9596 18 11.5 18C11.0404 18 10.5852 17.9095 10.1606 17.7336C9.73597 17.5577 9.35013 17.2999 9.02513 16.9749C8.70012 16.6499 8.44231 16.264 8.26642 15.8394C8.09053 15.4148 8 14.9596 8 14.5V5.5C8 4.57174 7.63125 3.6815 6.97487 3.02513C6.3185 2.36875 5.42826 2 4.5 2C3.57174 2 2.6815 2.36875 2.02513 3.02513C1.36875 3.6815 1 4.57174 1 5.5V17.5M15 1L18.5 4.5M15 1L11.5 4.5" stroke="#797979" stroke-width="1.5" stroke-linecap="round" stroke-linejoin="round"/>
</svg>
