<svg width="24" height="30" viewBox="0 0 24 30" fill="none" xmlns="http://www.w3.org/2000/svg">
<path d="M5.84 25.001H19.12C19.778 25.001 20.358 24.573 20.566 23.932C20.827 23.106 20.96 22.245 20.96 21.371C20.96 18.034 19.004 15.068 16.027 13.697C17.22 12.687 17.98 11.182 17.98 9.5C17.98 6.467 15.513 4 12.48 4C9.447 4 6.98 6.468 6.98 9.501C6.98 11.182 7.74 12.688 8.933 13.698C5.956 15.068 4 18.034 4 21.372C4 22.246 4.132 23.107 4.395 23.936C4.602 24.574 5.183 25.001 5.84 25.001ZM7.98 9.501C7.98 7.02 9.999 5.001 12.48 5.001C14.961 5.001 16.98 7.02 16.98 9.501C16.98 11.982 14.961 14.001 12.48 14.001C9.999 14.001 7.98 11.982 7.98 9.501ZM9.916 14.363C10.682 14.769 11.554 15.001 12.48 15.001C13.406 15.001 14.278 14.769 15.044 14.363C17.989 15.436 19.96 18.22 19.96 21.371C19.96 22.142 19.843 22.902 19.614 23.626C19.54 23.854 19.346 24.001 19.12 24.001H5.84C5.614 24.001 5.42 23.854 5.347 23.63C5.117 22.902 5 22.142 5 21.371C5 18.22 6.971 15.436 9.916 14.363Z" fill="black"/>
</svg>
