<svg xmlns="http://www.w3.org/2000/svg" viewBox="0 0 24 30" x="0px" y="0px"><path d="M5.36,22.5h13.28c.658,0,1.238-.428,1.446-1.069,.261-.826,.394-1.687,.394-2.561,0-3.337-1.956-6.303-4.933-7.674,1.193-1.01,1.953-2.515,1.953-4.197,0-3.033-2.467-5.5-5.5-5.5S6.5,3.967,6.5,7c0,1.681,.76,3.187,1.953,4.197-2.977,1.37-4.933,4.336-4.933,7.674,0,.874,.132,1.735,.395,2.564,.207,.638,.788,1.066,1.445,1.066ZM7.5,7c0-2.481,2.019-4.5,4.5-4.5s4.5,2.019,4.5,4.5-2.019,4.5-4.5,4.5-4.5-2.019-4.5-4.5Zm1.936,4.862c.766,.406,1.638,.638,2.564,.638s1.798-.232,2.564-.638c2.945,1.073,4.916,3.857,4.916,7.008,0,.771-.117,1.531-.346,2.255-.074,.228-.268,.375-.494,.375H5.36c-.226,0-.42-.147-.493-.371-.23-.728-.347-1.488-.347-2.259,0-3.151,1.971-5.935,4.916-7.008Z"/><text x="0" y="39" fill="#000000" font-size="5px" font-weight="bold" font-family="'Helvetica Neue', Helvetica, Arial-Unicode, Arial, Sans-serif">Created by Rini Bahtiar</text><text x="0" y="44" fill="#000000" font-size="5px" font-weight="bold" font-family="'Helvetica Neue', Helvetica, Arial-Unicode, Arial, Sans-serif">from the Noun Project</text></svg>